<?xml version="1.0" encoding="UTF-8" standalone="no"?>
<svg version="1.1"
     baseProfile="full"
     xmlns="http://www.w3.org/2000/svg"
     xmlns:xlink="http://www.w3.org/1999/xlink"
     xmlns:ev="http://www.w3.org/2001/xml-events"
     width="100%" height="850">

<!-- Цветовые подложки -->
<rect x="200" y="280" width="400" height="320" fill="brown" />
<rect x="320" y="360" width="160" height="160" fill="yellow" />

<!-- Брёвна-круги -->
<circle cx="200" cy="320" r="40" fill="brown" stroke="black" />
<circle cx="200" cy="400" r="40" fill="brown" stroke="black" />
<circle cx="200" cy="480" r="40" fill="brown" stroke="black" />
<circle cx="200" cy="560" r="40" fill="brown" stroke="black" />
<circle cx="600" cy="320" r="40" fill="brown" stroke="black" />
<circle cx="600" cy="400" r="40" fill="brown" stroke="black" />
<circle cx="600" cy="480" r="40" fill="brown" stroke="black" />
<circle cx="600" cy="560" r="40" fill="brown" stroke="black" />

<!-- Левая нога -->
<line x1="360" y1="600" x2="280" y2="720" stroke="orange" />
<line x1="280" y1="720" x2="200" y2="720" stroke="orange" />
<line x1="280" y1="720" x2="223.43146" y2="776.56854" stroke="orange" />
<line x1="280" y1="720" x2="280" y2="800" stroke="orange" />

<!-- Правая нога -->
<line x1="440" y1="600" x2="520" y2="720" stroke="orange" />
<line x1="520" y1="720" x2="600" y2="720" stroke="orange" />
<line x1="520" y1="720" x2="576.56854" y2="776.56854" stroke="orange" />
<line x1="520" y1="720" x2="520" y2="800" stroke="orange" />

<!-- Брёвна-палки -->
<line x1="200" y1="280" x2="600" y2="280" stroke="black" />
<line x1="200" y1="360" x2="600" y2="360" stroke="black" />
<line x1="200" y1="440" x2="600" y2="440" stroke="black" />
<line x1="200" y1="520" x2="600" y2="520" stroke="black" />
<line x1="200" y1="600" x2="600" y2="600" stroke="black" />

<!-- Окно -->
<line x1="320" y1="360" x2="320" y2="520" stroke="black" />
<line x1="400" y1="360" x2="400" y2="520" stroke="black" />

</svg>